# xmcd CD database file
#
# Track frame offsets:
#	150
#	13318
#	23208
#	46185
#	56623
#	71944
#	92972
#	104162
#	121893
#	138501
#	158776
#	175490
#
# Disc length: 2420 seconds
#
# Revision: 1
# Processed by: cddbd v1.5.2PL0 Copyright (c) Steve Scherf et al.
# Submitted via: CDex 1.51
#
DISCID=b009720c
DTITLE=Static Taxi - Stinson Blvd.
DYEAR=1988
DGENRE=Alternative
TTITLE0=FAFA
TTITLE1=Cocaine Couples
TTITLE2=Modern Joy
TTITLE3=Oasis
TTITLE4=Mr. Blu
TTITLE5=Noon AM (erica midnite)
TTITLE6=Airplay
TTITLE7=Walrus
TTITLE8=Max Factor
TTITLE9=We Do
TTITLE10=Holding Cell
TTITLE11=Hillbilly's Lament
EXTD=YEAR: 1988
EXTT0=
EXTT1=
EXTT2=
EXTT3=
EXTT4=
EXTT5=
EXTT6=
EXTT7=
EXTT8=
EXTT9=
EXTT10=
EXTT11=
PLAYORDER=
